<svg version="1.1" id="Layer_1" xmlns="http://www.w3.org/2000/svg" xmlns:xlink="http://www.w3.org/1999/xlink" x="0px" y="0px"
	 width="100%" viewBox="0 0 512 512" enable-background="new 0 0 512 512" xml:space="preserve">
<path fill="#000000" opacity="1.000000" stroke="none" 
	d="
M271.000000,513.000000 
	C261.645782,513.000000 252.291550,513.000000 242.468567,512.531372 
	C241.999908,469.422333 242.261932,426.778931 241.758591,384.144501 
	C241.667999,376.470917 239.401245,368.433350 236.451797,361.257385 
	C228.134094,341.020325 211.862411,327.507874 194.778671,314.993225 
	C180.413544,304.470093 164.601395,296.501648 147.892151,290.493530 
	C134.391388,285.639008 120.481262,282.043274 105.937859,283.071106 
	C95.182663,283.831207 89.178368,289.546844 95.030396,301.065704 
	C101.811798,314.413940 112.410355,324.565826 124.443413,332.839783 
	C134.188660,339.540619 145.120499,344.515778 155.771683,350.391907 
	C153.039566,357.561554 149.925644,365.443970 147.063293,373.416687 
	C146.178070,375.882355 145.208130,376.422028 142.760376,375.374481 
	C120.193893,365.717285 99.467766,353.611511 83.006233,334.745331 
	C71.416069,321.462128 62.983704,306.499542 57.227177,290.165161 
	C50.276924,270.443481 48.129623,249.650253 47.125011,228.883789 
	C46.203850,209.842300 46.824310,190.723511 45.798630,171.690887 
	C45.263329,161.757751 43.519970,151.681351 40.731056,142.134476 
	C37.722385,131.835388 30.523623,124.254402 19.432661,122.359566 
	C13.442796,121.336227 7.153957,122.062866 1.000000,122.000000 
	C1.000000,81.728874 1.000000,41.457748 1.000000,1.000000 
	C55.020752,1.000000 109.041718,1.000000 163.844543,1.321795 
	C164.137299,2.068472 163.708878,2.748937 163.150360,2.881537 
	C136.823349,9.132114 119.068726,26.283321 106.173157,48.874870 
	C97.987602,63.215027 93.650650,78.925049 91.744942,95.549683 
	C89.739693,113.042587 92.372131,129.350510 99.606178,145.139969 
	C106.678032,160.575409 116.066666,174.490936 128.057617,186.488861 
	C144.549026,202.989853 161.024643,219.530930 178.110153,235.405701 
	C190.354080,246.782013 203.652771,257.017090 216.357590,267.905182 
	C227.228043,277.221191 237.875000,286.797852 248.731979,296.129852 
	C251.248581,298.292999 254.217331,299.930084 257.246124,301.855927 
	C257.718903,301.615112 257.923584,301.327606 258.437378,300.913940 
	C263.479797,296.725098 268.227264,292.678711 272.943665,288.596436 
	C285.488129,277.738586 298.016113,266.861603 310.556458,255.998978 
	C325.447113,243.100449 340.865570,230.755600 355.100800,217.170593 
	C371.440674,201.577133 387.650421,185.830307 400.732361,167.068054 
	C417.577057,142.909271 425.635284,117.300858 420.239929,87.635590 
	C416.363312,66.320816 407.946167,47.423695 393.724701,31.423025 
	C381.480164,17.646568 366.408936,7.618196 348.246399,2.862603 
	C347.705444,2.720966 347.409943,1.641968 347.000000,1.000002 
	C402.248871,1.000000 457.497772,1.000000 513.000000,1.000000 
	C513.000000,41.020538 513.000000,81.041611 512.531616,121.531326 
	C508.231445,121.999977 504.378967,122.258415 500.571655,121.953323 
	C487.148987,120.877731 476.272034,132.606766 472.808868,141.881256 
	C467.679932,155.616638 466.863159,169.889221 466.126862,184.148056 
	C465.254761,201.036667 465.867126,218.007248 464.828033,234.880219 
	C464.028961,247.855362 462.412384,260.883514 459.853333,273.625824 
	C454.207855,301.736389 441.061615,325.743988 419.562836,345.245758 
	C404.982483,358.471680 388.150848,367.516937 370.374664,375.283386 
	C367.975464,376.331635 366.882965,376.059662 365.962311,373.564545 
	C363.014984,365.576660 359.893768,357.652863 356.839813,349.704590 
	C357.780731,349.168762 358.437836,348.662476 359.180695,348.390747 
	C378.240173,341.418762 394.851807,330.719727 408.058441,315.251251 
	C412.335083,310.242249 416.115448,304.549774 418.905334,298.599121 
	C422.156647,291.664337 420.006012,285.302429 411.893250,284.228607 
	C404.040527,283.189148 395.753296,282.932434 387.988495,284.264587 
	C373.170746,286.806793 359.078522,292.118042 345.570526,298.828094 
	C323.447784,309.817535 303.473083,323.679871 287.666962,342.901184 
	C277.636383,355.099091 271.108643,368.949219 271.051453,385.047394 
	C270.899933,427.697784 271.000031,470.349060 271.000000,513.000000 
z"/>
<path fill="#FFBFAB" opacity="1.000000" stroke="none" 
	d="
M271.468658,513.000000 
	C271.000031,470.349060 270.899933,427.697784 271.051453,385.047394 
	C271.108643,368.949219 277.636383,355.099091 287.666962,342.901184 
	C303.473083,323.679871 323.447784,309.817535 345.570526,298.828094 
	C359.078522,292.118042 373.170746,286.806793 387.988495,284.264587 
	C395.753296,282.932434 404.040527,283.189148 411.893250,284.228607 
	C420.006012,285.302429 422.156647,291.664337 418.905334,298.599121 
	C416.115448,304.549774 412.335083,310.242249 408.058441,315.251251 
	C394.851807,330.719727 378.240173,341.418762 359.180695,348.390747 
	C358.437836,348.662476 357.780731,349.168762 356.839813,349.704590 
	C359.893768,357.652863 363.014984,365.576660 365.962311,373.564545 
	C366.882965,376.059662 367.975464,376.331635 370.374664,375.283386 
	C388.150848,367.516937 404.982483,358.471680 419.562836,345.245758 
	C441.061615,325.743988 454.207855,301.736389 459.853333,273.625824 
	C462.412384,260.883514 464.028961,247.855362 464.828033,234.880219 
	C465.867126,218.007248 465.254761,201.036667 466.126862,184.148056 
	C466.863159,169.889221 467.679932,155.616638 472.808868,141.881256 
	C476.272034,132.606766 487.148987,120.877731 500.571655,121.953323 
	C504.378967,122.258415 508.231445,121.999977 512.531616,121.999985 
	C513.000000,170.687561 513.000000,219.375122 512.638184,268.206787 
	C511.850922,270.029785 511.207550,271.687408 511.041718,273.391541 
	C510.580383,278.132965 510.757294,282.975189 509.894989,287.631836 
	C507.126434,302.582367 504.500122,317.587952 500.915039,332.352814 
	C492.836304,365.624481 477.515289,394.906921 451.007812,417.353333 
	C438.828094,427.667023 425.819061,436.997742 413.561615,447.224335 
	C403.593811,455.540619 395.871552,465.816498 394.158966,479.032867 
	C392.704163,490.259979 392.665314,501.670593 392.000000,513.000000 
	C351.979095,513.000000 311.958221,513.000000 271.468658,513.000000 
z"/>
<path fill="#FFE1BA" opacity="1.000000" stroke="none" 
	d="
M1.000000,122.468658 
	C7.153957,122.062866 13.442796,121.336227 19.432661,122.359566 
	C30.523623,124.254402 37.722385,131.835388 40.731056,142.134476 
	C43.519970,151.681351 45.263329,161.757751 45.798630,171.690887 
	C46.824310,190.723511 46.203850,209.842300 47.125011,228.883789 
	C48.129623,249.650253 50.276924,270.443481 57.227177,290.165161 
	C62.983704,306.499542 71.416069,321.462128 83.006233,334.745331 
	C99.467766,353.611511 120.193893,365.717285 142.760376,375.374481 
	C145.208130,376.422028 146.178070,375.882355 147.063293,373.416687 
	C149.925644,365.443970 153.039566,357.561554 155.771683,350.391907 
	C145.120499,344.515778 134.188660,339.540619 124.443413,332.839783 
	C112.410355,324.565826 101.811798,314.413940 95.030396,301.065704 
	C89.178368,289.546844 95.182663,283.831207 105.937859,283.071106 
	C120.481262,282.043274 134.391388,285.639008 147.892151,290.493530 
	C164.601395,296.501648 180.413544,304.470093 194.778671,314.993225 
	C211.862411,327.507874 228.134094,341.020325 236.451797,361.257385 
	C239.401245,368.433350 241.667999,376.470917 241.758591,384.144501 
	C242.261932,426.778931 241.999908,469.422333 241.999908,512.531372 
	C201.979111,513.000000 161.958206,513.000000 121.468758,512.531372 
	C121.000153,505.568329 121.343109,499.050201 120.896484,492.586670 
	C120.507278,486.953949 119.626701,481.283661 118.266342,475.802948 
	C114.122276,459.107025 101.928490,448.741455 88.917542,438.940674 
	C75.417068,428.771118 61.817501,418.777161 50.370640,406.055328 
	C35.524952,389.556091 25.132652,370.707458 17.970322,349.895508 
	C9.269978,324.614441 4.461188,298.582703 2.922160,271.910736 
	C2.864235,270.906860 1.666560,269.968750 1.000005,269.000000 
	C1.000000,220.312439 1.000000,171.624878 1.000000,122.468658 
z"/>
<path fill="#FF7366" opacity="1.000000" stroke="none" 
	d="
M256.978027,301.809235 
	C254.217331,299.930084 251.248581,298.292999 248.731979,296.129852 
	C237.875000,286.797852 227.228043,277.221191 216.357590,267.905182 
	C203.652771,257.017090 190.354080,246.782013 178.110153,235.405701 
	C161.024643,219.530930 144.549026,202.989853 128.057617,186.488861 
	C116.066666,174.490936 106.678032,160.575409 99.606178,145.139969 
	C92.372131,129.350510 89.739693,113.042587 91.744942,95.549683 
	C93.650650,78.925049 97.987602,63.215027 106.173157,48.874870 
	C119.068726,26.283321 136.823349,9.132114 163.150360,2.881537 
	C163.708878,2.748937 164.137299,2.068472 164.313202,1.321795 
	C175.354233,1.000000 186.708450,1.000000 198.220123,1.322747 
	C198.866379,2.069731 199.295135,2.750587 199.852676,2.880986 
	C217.665680,7.047248 232.463898,16.457169 245.489334,28.984247 
	C249.295990,32.645252 253.136826,36.270691 256.944000,40.338600 
	C256.632263,43.221416 256.089172,45.677479 256.083405,48.134800 
	C256.025787,72.693459 256.056671,97.252335 255.595505,121.882568 
	C250.845032,121.953995 246.561646,121.953995 241.605270,121.953995 
	C241.605270,132.245514 241.605270,141.953186 241.605270,152.136566 
	C231.342667,152.136566 221.759201,152.136566 212.097733,152.136566 
	C212.097733,162.310516 212.097733,171.978302 212.097733,182.182053 
	C222.089630,182.182053 231.643066,182.182053 241.712677,182.182053 
	C241.712677,192.285751 241.712677,201.855057 241.712677,212.188858 
	C246.843964,212.188858 251.453217,212.188858 256.059540,212.645630 
	C256.368103,242.404892 256.679626,271.707367 256.990143,301.209717 
	C256.989136,301.409607 256.978027,301.809235 256.978027,301.809235 
z"/>
<path fill="#E6455A" opacity="1.000000" stroke="none" 
	d="
M256.991150,301.009857 
	C256.679626,271.707367 256.368103,242.404892 256.290588,212.562225 
	C256.524567,212.022064 256.980988,211.838608 257.443237,211.902130 
	C262.261047,211.923492 266.616547,211.881332 271.214996,211.825012 
	C271.803436,211.612823 271.895172,211.331909 271.779419,210.503876 
	C271.825684,200.803802 271.825684,191.567947 271.825684,181.839188 
	C282.065063,181.839188 291.518555,181.839188 301.214996,181.825012 
	C301.803436,181.612823 301.895172,181.331909 301.779419,180.503876 
	C301.794800,171.038010 301.763947,162.036362 301.759857,152.792877 
	C301.621948,152.200073 301.351196,152.070129 300.511169,152.097565 
	C290.792694,152.033951 281.537384,152.033951 271.733124,152.033951 
	C271.733124,141.924179 271.733124,132.479446 271.759888,122.792885 
	C271.621948,122.200104 271.351196,122.070145 270.515045,122.097687 
	C265.697479,122.076591 261.339233,122.118988 256.752991,122.069641 
	C256.524994,121.977905 256.062592,121.811150 256.062592,121.811150 
	C256.056671,97.252335 256.025787,72.693459 256.083405,48.134800 
	C256.089172,45.677479 256.632263,43.221416 257.061646,40.023087 
	C261.122375,35.352520 264.971771,31.344389 268.986664,27.509525 
	C281.355896,15.695003 295.721527,7.371358 312.290588,2.909224 
	C312.981628,2.723125 313.435577,1.656436 314.000000,0.999996 
	C324.687561,1.000000 335.375122,1.000000 346.531342,1.000002 
	C347.409943,1.641968 347.705444,2.720966 348.246399,2.862603 
	C366.408936,7.618196 381.480164,17.646568 393.724701,31.423025 
	C407.946167,47.423695 416.363312,66.320816 420.239929,87.635590 
	C425.635284,117.300858 417.577057,142.909271 400.732361,167.068054 
	C387.650421,185.830307 371.440674,201.577133 355.100800,217.170593 
	C340.865570,230.755600 325.447113,243.100449 310.556458,255.998978 
	C298.016113,266.861603 285.488129,277.738586 272.943665,288.596436 
	C268.227264,292.678711 263.479797,296.725098 258.152893,300.899445 
	C257.369904,301.010681 257.180511,301.010284 256.991150,301.009857 
z"/>
<path fill="#000000" opacity="1.000000" stroke="none" 
	d="
M392.468658,513.000000 
	C392.665314,501.670593 392.704163,490.259979 394.158966,479.032867 
	C395.871552,465.816498 403.593811,455.540619 413.561615,447.224335 
	C425.819061,436.997742 438.828094,427.667023 451.007812,417.353333 
	C477.515289,394.906921 492.836304,365.624481 500.915039,332.352814 
	C504.500122,317.587952 507.126434,302.582367 509.894989,287.631836 
	C510.757294,282.975189 510.580383,278.132965 511.041718,273.391541 
	C511.207550,271.687408 511.850922,270.029785 512.638184,268.675476 
	C513.000000,350.235748 513.000000,431.471527 513.000000,513.000000 
	C472.979584,513.000000 432.958435,513.000000 392.468658,513.000000 
z"/>
<path fill="#000000" opacity="1.000000" stroke="none" 
	d="
M1.000005,269.468658 
	C1.666560,269.968750 2.864235,270.906860 2.922160,271.910736 
	C4.461188,298.582703 9.269978,324.614441 17.970322,349.895508 
	C25.132652,370.707458 35.524952,389.556091 50.370640,406.055328 
	C61.817501,418.777161 75.417068,428.771118 88.917542,438.940674 
	C101.928490,448.741455 114.122276,459.107025 118.266342,475.802948 
	C119.626701,481.283661 120.507278,486.953949 120.896484,492.586670 
	C121.343109,499.050201 121.000153,505.568329 121.000099,512.531372 
	C81.048119,513.000000 41.096245,513.000000 1.000000,513.000000 
	C1.000000,431.979156 1.000000,350.958252 1.000005,269.468658 
z"/>
<path fill="#000000" opacity="1.000000" stroke="none" 
	d="
M313.531342,0.999996 
	C313.435577,1.656436 312.981628,2.723125 312.290588,2.909224 
	C295.721527,7.371358 281.355896,15.695003 268.986664,27.509525 
	C264.971771,31.344389 261.122375,35.352520 257.079651,39.596916 
	C253.136826,36.270691 249.295990,32.645252 245.489334,28.984247 
	C232.463898,16.457169 217.665680,7.047248 199.852676,2.880986 
	C199.295135,2.750587 198.866379,2.069731 198.688782,1.322747 
	C237.020889,1.000000 275.041779,1.000000 313.531342,0.999996 
z"/>
<path fill="#F25C60" opacity="1.000000" stroke="none" 
	d="
M256.990143,301.209717 
	C257.180511,301.010284 257.369904,301.010681 257.843750,301.025574 
	C257.923584,301.327606 257.718903,301.615112 257.246124,301.855927 
	C256.978027,301.809235 256.989136,301.409607 256.990143,301.209717 
z"/>
<path fill="#E6F2F2" opacity="1.000000" stroke="none" 
	d="
M256.980988,211.838608 
	C256.980988,211.838608 256.524567,212.022064 256.293518,212.105469 
	C251.453217,212.188858 246.843964,212.188858 241.712677,212.188858 
	C241.712677,201.855057 241.712677,192.285751 241.712677,182.182053 
	C231.643066,182.182053 222.089630,182.182053 212.097733,182.182053 
	C212.097733,171.978302 212.097733,162.310516 212.097733,152.136566 
	C221.759201,152.136566 231.342667,152.136566 241.605270,152.136566 
	C241.605270,141.953186 241.605270,132.245514 241.605270,121.953995 
	C246.561646,121.953995 250.845032,121.953995 255.595505,121.882568 
	C256.062592,121.811150 256.524994,121.977905 256.754608,122.527390 
	C256.983154,152.664124 256.982056,182.251358 256.980988,211.838608 
z"/>
<path fill="#CFE6E6" opacity="1.000000" stroke="none" 
	d="
M257.443237,211.902130 
	C256.982056,182.251358 256.983154,152.664124 256.982605,122.619125 
	C261.339233,122.118988 265.697479,122.076591 270.608704,122.270432 
	C271.302429,122.736481 271.492920,122.912506 271.733124,123.034729 
	C271.733124,132.479446 271.733124,141.924179 271.733124,152.033951 
	C281.537384,152.033951 290.792694,152.033951 300.604828,152.270294 
	C301.302368,152.736481 301.492889,152.912506 301.733093,153.034714 
	C301.763947,162.036362 301.794800,171.038010 301.617737,180.615204 
	C301.223206,181.379395 301.077301,181.595535 300.972076,181.839188 
	C291.518555,181.839188 282.065063,181.839188 271.825684,181.839188 
	C271.825684,191.567947 271.825684,200.803802 271.617767,210.615204 
	C271.223206,211.379395 271.077301,211.595535 270.972076,211.839188 
	C266.616547,211.881332 262.261047,211.923492 257.443237,211.902130 
z"/>
<path fill="#DBC0C6" opacity="1.000000" stroke="none" 
	d="
M271.759888,122.792885 
	C271.492920,122.912506 271.302429,122.736481 271.067993,122.333908 
	C271.351196,122.070145 271.621948,122.200104 271.759888,122.792885 
z"/>
<path fill="#DBC0C6" opacity="1.000000" stroke="none" 
	d="
M301.759888,152.792877 
	C301.492889,152.912506 301.302368,152.736481 301.067993,152.333908 
	C301.351196,152.070129 301.621948,152.200073 301.759888,152.792877 
z"/>
<path fill="#DBC0C6" opacity="1.000000" stroke="none" 
	d="
M301.214996,181.825012 
	C301.077301,181.595535 301.223206,181.379395 301.571503,181.079422 
	C301.895172,181.331909 301.803436,181.612823 301.214996,181.825012 
z"/>
<path fill="#DBC0C6" opacity="1.000000" stroke="none" 
	d="
M271.214996,211.825012 
	C271.077301,211.595535 271.223206,211.379395 271.571503,211.079422 
	C271.895172,211.331909 271.803436,211.612823 271.214996,211.825012 
z"/>
</svg>